<?xml version="1.0" encoding="UTF-8"?>
<svg width="200" height="200" viewBox="0 0 200 200" fill="none" xmlns="http://www.w3.org/2000/svg">
  <!-- Panda Head -->
  <circle cx="100" cy="100" r="70" fill="white" stroke="black" stroke-width="3"/>
  
  <!-- Panda Ears -->
  <circle cx="50" cy="50" r="25" fill="black" stroke="black" stroke-width="3"/>
  <circle cx="150" cy="50" r="25" fill="black" stroke="black" stroke-width="3"/>
  
  <!-- Panda Eyes -->
  <ellipse cx="75" cy="90" rx="15" ry="20" fill="black" stroke="black" stroke-width="2"/>
  <ellipse cx="125" cy="90" rx="15" ry="20" fill="black" stroke="black" stroke-width="2"/>
  
  <!-- Eye Highlights -->
  <circle cx="70" cy="85" r="5" fill="white"/>
  <circle cx="120" cy="85" r="5" fill="white"/>
  
  <!-- Panda Nose -->
  <ellipse cx="100" cy="110" rx="10" ry="7" fill="black" stroke="black" stroke-width="2"/>
  
  <!-- Panda Mouth -->
  <path d="M85 125 Q100 135 115 125" stroke="black" stroke-width="2" fill="none"/>
  
  <!-- Cute Blush -->
  <ellipse cx="70" cy="115" rx="12" ry="6" fill="#FF9AC7" opacity="0.5"/>
  <ellipse cx="130" cy="115" rx="12" ry="6" fill="#FF9AC7" opacity="0.5"/>
  
  <!-- Heart -->
  <path d="M100 40 Q110 30 120 40 T140 40 Q140 55 100 75 Q60 55 60 40 Q60 30 70 30 T100 40Z" fill="#FF9AC7" opacity="0.7"/>
</svg> 