<?xml version="1.0" encoding="UTF-8"?>
<svg width="300" height="350" viewBox="0 0 300 350" fill="none" xmlns="http://www.w3.org/2000/svg">
  <!-- Resume Paper -->
  <rect x="50" y="30" width="200" height="250" rx="10" fill="white" stroke="black" stroke-width="3"/>
  
  <!-- Resume Lines -->
  <line x1="70" y1="70" x2="230" y2="70" stroke="#ccc" stroke-width="2"/>
  <line x1="70" y1="100" x2="230" y2="100" stroke="#ccc" stroke-width="2"/>
  <line x1="70" y1="130" x2="230" y2="130" stroke="#ccc" stroke-width="2"/>
  <line x1="70" y1="160" x2="230" y2="160" stroke="#ccc" stroke-width="2"/>
  <line x1="70" y1="190" x2="230" y2="190" stroke="#ccc" stroke-width="2"/>
  <line x1="70" y1="220" x2="230" y2="220" stroke="#ccc" stroke-width="2"/>
  <line x1="70" y1="250" x2="230" y2="250" stroke="#ccc" stroke-width="2"/>
  
  <!-- Resume Header -->
  <rect x="70" y="40" width="160" height="20" rx="5" fill="#FF9AC7" opacity="0.7"/>
  
  <!-- Panda Peeking -->
  <circle cx="150" cy="320" r="50" fill="white" stroke="black" stroke-width="3"/>
  
  <!-- Panda Ears -->
  <circle cx="120" cy="280" r="15" fill="black" stroke="black" stroke-width="3"/>
  <circle cx="180" cy="280" r="15" fill="black" stroke="black" stroke-width="3"/>
  
  <!-- Panda Eyes -->
  <ellipse cx="135" cy="315" rx="10" ry="12" fill="black" stroke="black" stroke-width="2"/>
  <ellipse cx="165" cy="315" rx="10" ry="12" fill="black" stroke="black" stroke-width="2"/>
  
  <!-- Eye Highlights -->
  <circle cx="132" cy="312" r="3" fill="white"/>
  <circle cx="162" cy="312" r="3" fill="white"/>
  
  <!-- Panda Nose -->
  <ellipse cx="150" cy="325" rx="6" ry="4" fill="black" stroke="black" stroke-width="2"/>
  
  <!-- Panda Paws Holding Resume -->
  <circle cx="85" cy="270" r="15" fill="white" stroke="black" stroke-width="3"/>
  <circle cx="215" cy="270" r="15" fill="white" stroke="black" stroke-width="3"/>
  
  <!-- Cute Blush -->
  <ellipse cx="130" cy="330" rx="8" ry="4" fill="#FF9AC7" opacity="0.5"/>
  <ellipse cx="170" cy="330" rx="8" ry="4" fill="#FF9AC7" opacity="0.5"/>
  
  <!-- Decorative Elements -->
  <circle cx="50" cy="50" r="10" fill="#FFCCE0" opacity="0.5"/>
  <circle cx="250" cy="50" r="10" fill="#FFCCE0" opacity="0.5"/>
  <circle cx="50" cy="260" r="10" fill="#FFCCE0" opacity="0.5"/>
  <circle cx="250" cy="260" r="10" fill="#FFCCE0" opacity="0.5"/>
</svg> 